<svg xmlns="http://www.w3.org/2000/svg" xmlns:xlink="http://www.w3.org/1999/xlink" width="500" zoomAndPan="magnify" viewBox="0 0 375 374.999991" height="500" preserveAspectRatio="xMidYMid meet" version="1.0"><defs><g/></defs><path stroke-linecap="butt" transform="matrix(0, -0.75, 0.75, 0, 261.580447, 217.37401)" fill="none" stroke-linejoin="miter" d="M -0.00132037 0.502113 L 63.941392 0.502113 " stroke="#ffffff" stroke-width="1" stroke-opacity="1" stroke-miterlimit="4"/><g fill="#ffffff" fill-opacity="1"><g transform="translate(274.331442, 182.836937)"><g><path d="M 1.859375 0 L 1.078125 0 L 1.078125 -7.125 L 2.328125 -7.125 L 4.484375 -1.09375 L 4.578125 -1.09375 L 6.75 -7.125 L 7.9375 -7.125 L 7.9375 0 L 7.140625 0 L 7.140625 -5.8125 L 7.03125 -5.828125 L 4.921875 0 L 4.078125 0 L 1.96875 -5.828125 L 1.859375 -5.8125 Z M 1.859375 0 "/></g></g></g><g fill="#ffffff" fill-opacity="1"><g transform="translate(283.355405, 182.836937)"><g><path d="M 6.421875 0 L 5.515625 0 L 4.859375 -1.953125 L 1.828125 -1.953125 L 1.15625 0 L 0.28125 0 L 2.765625 -7.125 L 3.921875 -7.125 Z M 3.28125 -6.265625 L 2.0625 -2.65625 L 4.625 -2.65625 L 3.40625 -6.265625 Z M 3.28125 -6.265625 "/></g></g></g><g fill="#ffffff" fill-opacity="1"><g transform="translate(290.053906, 182.836937)"><g><path d="M 1.078125 0 L 1.078125 -7.125 L 3.671875 -7.125 C 4.140625 -7.125 4.535156 -7.046875 4.859375 -6.890625 C 5.191406 -6.734375 5.4375 -6.507812 5.59375 -6.21875 C 5.757812 -5.9375 5.84375 -5.597656 5.84375 -5.203125 C 5.84375 -4.753906 5.734375 -4.382812 5.515625 -4.09375 C 5.296875 -3.8125 4.953125 -3.601562 4.484375 -3.46875 L 4.484375 -3.359375 C 4.710938 -3.265625 4.898438 -3.117188 5.046875 -2.921875 C 5.191406 -2.734375 5.328125 -2.445312 5.453125 -2.0625 L 6.109375 0 L 5.25 0 L 4.53125 -2.171875 C 4.445312 -2.429688 4.347656 -2.632812 4.234375 -2.78125 C 4.128906 -2.925781 3.988281 -3.03125 3.8125 -3.09375 C 3.644531 -3.164062 3.429688 -3.203125 3.171875 -3.203125 L 1.921875 -3.203125 L 1.921875 0 Z M 3.640625 -3.90625 C 4.085938 -3.90625 4.421875 -4.007812 4.640625 -4.21875 C 4.859375 -4.425781 4.96875 -4.738281 4.96875 -5.15625 C 4.96875 -5.582031 4.859375 -5.898438 4.640625 -6.109375 C 4.421875 -6.316406 4.085938 -6.421875 3.640625 -6.421875 L 1.921875 -6.421875 L 1.921875 -3.90625 Z M 3.640625 -3.90625 "/></g></g></g><g fill="#ffffff" fill-opacity="1"><g transform="translate(296.654904, 182.836937)"><g><path d="M 1.078125 0 L 1.078125 -7.125 L 1.921875 -7.125 L 1.921875 -4.015625 L 2.0625 -4.015625 L 5 -7.125 L 5.90625 -7.125 L 5.90625 -7 L 2.828125 -3.671875 L 6.15625 -0.125 L 6.15625 0 L 5.1875 0 L 2.0625 -3.28125 L 1.921875 -3.28125 L 1.921875 0 Z M 1.078125 0 "/></g></g></g><g fill="#ffffff" fill-opacity="1"><g transform="translate(302.943889, 182.836937)"><g><path d="M 1.921875 -3.359375 L 1.921875 -0.6875 L 5.546875 -0.6875 L 5.546875 0 L 1.078125 0 L 1.078125 -7.125 L 5.46875 -7.125 L 5.46875 -6.4375 L 1.921875 -6.4375 L 1.921875 -4.046875 L 5.046875 -4.046875 L 5.046875 -3.359375 Z M 1.921875 -3.359375 "/></g></g></g><g fill="#ffffff" fill-opacity="1"><g transform="translate(308.96474, 182.836937)"><g><path d="M 5.5625 -7.125 L 5.5625 -6.421875 L 3.328125 -6.421875 L 3.328125 0 L 2.5 0 L 2.5 -6.421875 L 0.265625 -6.421875 L 0.265625 -7.125 Z M 5.5625 -7.125 "/></g></g></g><g fill="#ffffff" fill-opacity="1"><g transform="translate(314.785708, 182.836937)"><g><path d="M 1.921875 0 L 1.078125 0 L 1.078125 -7.125 L 1.921875 -7.125 Z M 1.921875 0 "/></g></g></g><g fill="#ffffff" fill-opacity="1"><g transform="translate(317.783946, 182.836937)"><g><path d="M 1.890625 0 L 1.078125 0 L 1.078125 -7.125 L 2.109375 -7.125 L 5.578125 -1.6875 L 5.703125 -1.703125 L 5.703125 -7.125 L 6.515625 -7.125 L 6.515625 0 L 5.640625 0 L 2.015625 -5.828125 L 1.890625 -5.8125 Z M 1.890625 0 "/></g></g></g><g fill="#ffffff" fill-opacity="1"><g transform="translate(325.384356, 182.836937)"><g><path d="M 3.75 0.109375 C 3.15625 0.109375 2.628906 -0.0234375 2.171875 -0.296875 C 1.710938 -0.578125 1.351562 -0.988281 1.09375 -1.53125 C 0.84375 -2.082031 0.71875 -2.757812 0.71875 -3.5625 C 0.71875 -4.363281 0.851562 -5.035156 1.125 -5.578125 C 1.394531 -6.128906 1.773438 -6.539062 2.265625 -6.8125 C 2.753906 -7.09375 3.316406 -7.234375 3.953125 -7.234375 C 4.640625 -7.234375 5.203125 -7.109375 5.640625 -6.859375 C 6.078125 -6.617188 6.382812 -6.253906 6.5625 -5.765625 L 6.015625 -5.4375 L 5.90625 -5.4375 C 5.71875 -5.8125 5.460938 -6.078125 5.140625 -6.234375 C 4.828125 -6.398438 4.429688 -6.484375 3.953125 -6.484375 C 2.390625 -6.484375 1.609375 -5.507812 1.609375 -3.5625 C 1.609375 -2.550781 1.800781 -1.8125 2.1875 -1.34375 C 2.582031 -0.882812 3.132812 -0.65625 3.84375 -0.65625 C 4.5 -0.65625 4.988281 -0.800781 5.3125 -1.09375 C 5.632812 -1.394531 5.796875 -1.863281 5.796875 -2.5 L 5.796875 -3.125 L 3.765625 -3.125 L 3.765625 -3.796875 L 6.609375 -3.796875 L 6.609375 0 L 5.828125 0 L 5.828125 -0.953125 L 5.734375 -0.984375 C 5.546875 -0.609375 5.28125 -0.332031 4.9375 -0.15625 C 4.601562 0.0195312 4.207031 0.109375 3.75 0.109375 Z M 3.75 0.109375 "/></g></g></g><g fill="#ffffff" fill-opacity="1"><g transform="translate(274.331442, 197.086936)"><g><path d="M 3.109375 0.109375 C 2.660156 0.109375 2.257812 0.046875 1.90625 -0.078125 C 1.550781 -0.203125 1.253906 -0.363281 1.015625 -0.5625 C 0.773438 -0.757812 0.597656 -0.976562 0.484375 -1.21875 L 0.953125 -1.765625 L 1.0625 -1.765625 C 1.507812 -1.023438 2.191406 -0.65625 3.109375 -0.65625 C 3.648438 -0.65625 4.050781 -0.765625 4.3125 -0.984375 C 4.570312 -1.210938 4.703125 -1.523438 4.703125 -1.921875 C 4.703125 -2.160156 4.660156 -2.359375 4.578125 -2.515625 C 4.492188 -2.679688 4.347656 -2.820312 4.140625 -2.9375 C 3.941406 -3.050781 3.675781 -3.148438 3.34375 -3.234375 L 2.5 -3.4375 C 1.882812 -3.59375 1.425781 -3.832031 1.125 -4.15625 C 0.832031 -4.476562 0.6875 -4.890625 0.6875 -5.390625 C 0.6875 -5.742188 0.773438 -6.0625 0.953125 -6.34375 C 1.140625 -6.625 1.410156 -6.84375 1.765625 -7 C 2.117188 -7.15625 2.535156 -7.234375 3.015625 -7.234375 C 3.554688 -7.234375 4.007812 -7.15625 4.375 -7 C 4.75 -6.851562 5.046875 -6.628906 5.265625 -6.328125 L 4.859375 -5.765625 L 4.734375 -5.765625 C 4.523438 -6.015625 4.28125 -6.195312 4 -6.3125 C 3.726562 -6.4375 3.398438 -6.5 3.015625 -6.5 C 2.523438 -6.5 2.15625 -6.398438 1.90625 -6.203125 C 1.65625 -6.015625 1.53125 -5.753906 1.53125 -5.421875 C 1.53125 -5.097656 1.617188 -4.835938 1.796875 -4.640625 C 1.984375 -4.453125 2.296875 -4.304688 2.734375 -4.203125 L 3.59375 -4 C 4.28125 -3.84375 4.78125 -3.59375 5.09375 -3.25 C 5.40625 -2.914062 5.5625 -2.488281 5.5625 -1.96875 C 5.5625 -1.5625 5.46875 -1.203125 5.28125 -0.890625 C 5.101562 -0.578125 4.832031 -0.332031 4.46875 -0.15625 C 4.101562 0.0195312 3.648438 0.109375 3.109375 0.109375 Z M 3.109375 0.109375 "/></g></g></g><g fill="#ffffff" fill-opacity="1"><g transform="translate(280.440046, 197.086936)"><g><path d="M 3.90625 0.109375 C 3.289062 0.109375 2.742188 -0.0234375 2.265625 -0.296875 C 1.785156 -0.566406 1.40625 -0.972656 1.125 -1.515625 C 0.851562 -2.066406 0.71875 -2.75 0.71875 -3.5625 C 0.71875 -4.375 0.851562 -5.054688 1.125 -5.609375 C 1.40625 -6.160156 1.785156 -6.566406 2.265625 -6.828125 C 2.742188 -7.097656 3.289062 -7.234375 3.90625 -7.234375 C 4.53125 -7.234375 5.082031 -7.097656 5.5625 -6.828125 C 6.039062 -6.566406 6.414062 -6.160156 6.6875 -5.609375 C 6.96875 -5.054688 7.109375 -4.375 7.109375 -3.5625 C 7.109375 -2.75 6.96875 -2.066406 6.6875 -1.515625 C 6.414062 -0.972656 6.039062 -0.566406 5.5625 -0.296875 C 5.082031 -0.0234375 4.53125 0.109375 3.90625 0.109375 Z M 3.90625 -0.671875 C 4.644531 -0.671875 5.210938 -0.898438 5.609375 -1.359375 C 6.015625 -1.828125 6.21875 -2.5625 6.21875 -3.5625 C 6.21875 -4.5625 6.015625 -5.289062 5.609375 -5.75 C 5.210938 -6.21875 4.644531 -6.453125 3.90625 -6.453125 C 2.375 -6.453125 1.609375 -5.488281 1.609375 -3.5625 C 1.609375 -1.632812 2.375 -0.671875 3.90625 -0.671875 Z M 3.90625 -0.671875 "/></g></g></g><g fill="#ffffff" fill-opacity="1"><g transform="translate(288.259839, 197.086936)"><g><path d="M 1.921875 -7.125 L 1.921875 -0.6875 L 5.34375 -0.6875 L 5.34375 0 L 1.078125 0 L 1.078125 -7.125 Z M 1.921875 -7.125 "/></g></g></g><g fill="#ffffff" fill-opacity="1"><g transform="translate(293.910176, 197.086936)"><g><path d="M 3.671875 0.109375 C 2.796875 0.109375 2.132812 -0.113281 1.6875 -0.5625 C 1.238281 -1.007812 1.015625 -1.664062 1.015625 -2.53125 L 1.015625 -7.125 L 1.859375 -7.125 L 1.859375 -2.546875 C 1.859375 -1.921875 2.003906 -1.453125 2.296875 -1.140625 C 2.597656 -0.828125 3.054688 -0.671875 3.671875 -0.671875 C 4.890625 -0.671875 5.5 -1.296875 5.5 -2.546875 L 5.5 -7.125 L 6.328125 -7.125 L 6.328125 -2.53125 C 6.328125 -1.664062 6.101562 -1.007812 5.65625 -0.5625 C 5.207031 -0.113281 4.546875 0.109375 3.671875 0.109375 Z M 3.671875 0.109375 "/></g></g></g><g fill="#ffffff" fill-opacity="1"><g transform="translate(301.257076, 197.086936)"><g><path d="M 5.5625 -7.125 L 5.5625 -6.421875 L 3.328125 -6.421875 L 3.328125 0 L 2.5 0 L 2.5 -6.421875 L 0.265625 -6.421875 L 0.265625 -7.125 Z M 5.5625 -7.125 "/></g></g></g><g fill="#ffffff" fill-opacity="1"><g transform="translate(307.078044, 197.086936)"><g><path d="M 1.921875 0 L 1.078125 0 L 1.078125 -7.125 L 1.921875 -7.125 Z M 1.921875 0 "/></g></g></g><g fill="#ffffff" fill-opacity="1"><g transform="translate(310.076282, 197.086936)"><g><path d="M 3.90625 0.109375 C 3.289062 0.109375 2.742188 -0.0234375 2.265625 -0.296875 C 1.785156 -0.566406 1.40625 -0.972656 1.125 -1.515625 C 0.851562 -2.066406 0.71875 -2.75 0.71875 -3.5625 C 0.71875 -4.375 0.851562 -5.054688 1.125 -5.609375 C 1.40625 -6.160156 1.785156 -6.566406 2.265625 -6.828125 C 2.742188 -7.097656 3.289062 -7.234375 3.90625 -7.234375 C 4.53125 -7.234375 5.082031 -7.097656 5.5625 -6.828125 C 6.039062 -6.566406 6.414062 -6.160156 6.6875 -5.609375 C 6.96875 -5.054688 7.109375 -4.375 7.109375 -3.5625 C 7.109375 -2.75 6.96875 -2.066406 6.6875 -1.515625 C 6.414062 -0.972656 6.039062 -0.566406 5.5625 -0.296875 C 5.082031 -0.0234375 4.53125 0.109375 3.90625 0.109375 Z M 3.90625 -0.671875 C 4.644531 -0.671875 5.210938 -0.898438 5.609375 -1.359375 C 6.015625 -1.828125 6.21875 -2.5625 6.21875 -3.5625 C 6.21875 -4.5625 6.015625 -5.289062 5.609375 -5.75 C 5.210938 -6.21875 4.644531 -6.453125 3.90625 -6.453125 C 2.375 -6.453125 1.609375 -5.488281 1.609375 -3.5625 C 1.609375 -1.632812 2.375 -0.671875 3.90625 -0.671875 Z M 3.90625 -0.671875 "/></g></g></g><g fill="#ffffff" fill-opacity="1"><g transform="translate(317.896075, 197.086936)"><g><path d="M 1.890625 0 L 1.078125 0 L 1.078125 -7.125 L 2.109375 -7.125 L 5.578125 -1.6875 L 5.703125 -1.703125 L 5.703125 -7.125 L 6.515625 -7.125 L 6.515625 0 L 5.640625 0 L 2.015625 -5.828125 L 1.890625 -5.8125 Z M 1.890625 0 "/></g></g></g><g fill="#ffffff" fill-opacity="1"><g transform="translate(325.496485, 197.086936)"><g><path d="M 3.109375 0.109375 C 2.660156 0.109375 2.257812 0.046875 1.90625 -0.078125 C 1.550781 -0.203125 1.253906 -0.363281 1.015625 -0.5625 C 0.773438 -0.757812 0.597656 -0.976562 0.484375 -1.21875 L 0.953125 -1.765625 L 1.0625 -1.765625 C 1.507812 -1.023438 2.191406 -0.65625 3.109375 -0.65625 C 3.648438 -0.65625 4.050781 -0.765625 4.3125 -0.984375 C 4.570312 -1.210938 4.703125 -1.523438 4.703125 -1.921875 C 4.703125 -2.160156 4.660156 -2.359375 4.578125 -2.515625 C 4.492188 -2.679688 4.347656 -2.820312 4.140625 -2.9375 C 3.941406 -3.050781 3.675781 -3.148438 3.34375 -3.234375 L 2.5 -3.4375 C 1.882812 -3.59375 1.425781 -3.832031 1.125 -4.15625 C 0.832031 -4.476562 0.6875 -4.890625 0.6875 -5.390625 C 0.6875 -5.742188 0.773438 -6.0625 0.953125 -6.34375 C 1.140625 -6.625 1.410156 -6.84375 1.765625 -7 C 2.117188 -7.15625 2.535156 -7.234375 3.015625 -7.234375 C 3.554688 -7.234375 4.007812 -7.15625 4.375 -7 C 4.75 -6.851562 5.046875 -6.628906 5.265625 -6.328125 L 4.859375 -5.765625 L 4.734375 -5.765625 C 4.523438 -6.015625 4.28125 -6.195312 4 -6.3125 C 3.726562 -6.4375 3.398438 -6.5 3.015625 -6.5 C 2.523438 -6.5 2.15625 -6.398438 1.90625 -6.203125 C 1.65625 -6.015625 1.53125 -5.753906 1.53125 -5.421875 C 1.53125 -5.097656 1.617188 -4.835938 1.796875 -4.640625 C 1.984375 -4.453125 2.296875 -4.304688 2.734375 -4.203125 L 3.59375 -4 C 4.28125 -3.84375 4.78125 -3.59375 5.09375 -3.25 C 5.40625 -2.914062 5.5625 -2.488281 5.5625 -1.96875 C 5.5625 -1.5625 5.46875 -1.203125 5.28125 -0.890625 C 5.101562 -0.578125 4.832031 -0.332031 4.46875 -0.15625 C 4.101562 0.0195312 3.648438 0.109375 3.109375 0.109375 Z M 3.109375 0.109375 "/></g></g></g><g fill="#ffffff" fill-opacity="1"><g transform="translate(331.605089, 197.086936)"><g/></g></g><g fill="#ffffff" fill-opacity="1"><g transform="translate(334.052431, 197.086936)"><g><path d="M 5.265625 -7.125 L 5.265625 -6.4375 L 1.921875 -6.4375 L 1.921875 -3.84375 L 4.921875 -3.84375 L 4.921875 -3.140625 L 1.921875 -3.140625 L 1.921875 0 L 1.078125 0 L 1.078125 -7.125 Z M 5.265625 -7.125 "/></g></g></g><g fill="#ffffff" fill-opacity="1"><g transform="translate(339.702768, 197.086936)"><g><path d="M 3.90625 0.109375 C 3.289062 0.109375 2.742188 -0.0234375 2.265625 -0.296875 C 1.785156 -0.566406 1.40625 -0.972656 1.125 -1.515625 C 0.851562 -2.066406 0.71875 -2.75 0.71875 -3.5625 C 0.71875 -4.375 0.851562 -5.054688 1.125 -5.609375 C 1.40625 -6.160156 1.785156 -6.566406 2.265625 -6.828125 C 2.742188 -7.097656 3.289062 -7.234375 3.90625 -7.234375 C 4.53125 -7.234375 5.082031 -7.097656 5.5625 -6.828125 C 6.039062 -6.566406 6.414062 -6.160156 6.6875 -5.609375 C 6.96875 -5.054688 7.109375 -4.375 7.109375 -3.5625 C 7.109375 -2.75 6.96875 -2.066406 6.6875 -1.515625 C 6.414062 -0.972656 6.039062 -0.566406 5.5625 -0.296875 C 5.082031 -0.0234375 4.53125 0.109375 3.90625 0.109375 Z M 3.90625 -0.671875 C 4.644531 -0.671875 5.210938 -0.898438 5.609375 -1.359375 C 6.015625 -1.828125 6.21875 -2.5625 6.21875 -3.5625 C 6.21875 -4.5625 6.015625 -5.289062 5.609375 -5.75 C 5.210938 -6.21875 4.644531 -6.453125 3.90625 -6.453125 C 2.375 -6.453125 1.609375 -5.488281 1.609375 -3.5625 C 1.609375 -1.632812 2.375 -0.671875 3.90625 -0.671875 Z M 3.90625 -0.671875 "/></g></g></g><g fill="#ffffff" fill-opacity="1"><g transform="translate(347.522561, 197.086936)"><g><path d="M 1.078125 0 L 1.078125 -7.125 L 3.671875 -7.125 C 4.140625 -7.125 4.535156 -7.046875 4.859375 -6.890625 C 5.191406 -6.734375 5.4375 -6.507812 5.59375 -6.21875 C 5.757812 -5.9375 5.84375 -5.597656 5.84375 -5.203125 C 5.84375 -4.753906 5.734375 -4.382812 5.515625 -4.09375 C 5.296875 -3.8125 4.953125 -3.601562 4.484375 -3.46875 L 4.484375 -3.359375 C 4.710938 -3.265625 4.898438 -3.117188 5.046875 -2.921875 C 5.191406 -2.734375 5.328125 -2.445312 5.453125 -2.0625 L 6.109375 0 L 5.25 0 L 4.53125 -2.171875 C 4.445312 -2.429688 4.347656 -2.632812 4.234375 -2.78125 C 4.128906 -2.925781 3.988281 -3.03125 3.8125 -3.09375 C 3.644531 -3.164062 3.429688 -3.203125 3.171875 -3.203125 L 1.921875 -3.203125 L 1.921875 0 Z M 3.640625 -3.90625 C 4.085938 -3.90625 4.421875 -4.007812 4.640625 -4.21875 C 4.859375 -4.425781 4.96875 -4.738281 4.96875 -5.15625 C 4.96875 -5.582031 4.859375 -5.898438 4.640625 -6.109375 C 4.421875 -6.316406 4.085938 -6.421875 3.640625 -6.421875 L 1.921875 -6.421875 L 1.921875 -3.90625 Z M 3.640625 -3.90625 "/></g></g></g><g fill="#ffffff" fill-opacity="1"><g transform="translate(274.331442, 211.336935)"><g><path d="M 5.5625 -7.125 L 5.5625 -6.421875 L 3.328125 -6.421875 L 3.328125 0 L 2.5 0 L 2.5 -6.421875 L 0.265625 -6.421875 L 0.265625 -7.125 Z M 5.5625 -7.125 "/></g></g></g><g fill="#ffffff" fill-opacity="1"><g transform="translate(279.928026, 211.336935)"><g><path d="M 3.90625 0.109375 C 3.289062 0.109375 2.742188 -0.0234375 2.265625 -0.296875 C 1.785156 -0.566406 1.40625 -0.972656 1.125 -1.515625 C 0.851562 -2.066406 0.71875 -2.75 0.71875 -3.5625 C 0.71875 -4.375 0.851562 -5.054688 1.125 -5.609375 C 1.40625 -6.160156 1.785156 -6.566406 2.265625 -6.828125 C 2.742188 -7.097656 3.289062 -7.234375 3.90625 -7.234375 C 4.53125 -7.234375 5.082031 -7.097656 5.5625 -6.828125 C 6.039062 -6.566406 6.414062 -6.160156 6.6875 -5.609375 C 6.96875 -5.054688 7.109375 -4.375 7.109375 -3.5625 C 7.109375 -2.75 6.96875 -2.066406 6.6875 -1.515625 C 6.414062 -0.972656 6.039062 -0.566406 5.5625 -0.296875 C 5.082031 -0.0234375 4.53125 0.109375 3.90625 0.109375 Z M 3.90625 -0.671875 C 4.644531 -0.671875 5.210938 -0.898438 5.609375 -1.359375 C 6.015625 -1.828125 6.21875 -2.5625 6.21875 -3.5625 C 6.21875 -4.5625 6.015625 -5.289062 5.609375 -5.75 C 5.210938 -6.21875 4.644531 -6.453125 3.90625 -6.453125 C 2.375 -6.453125 1.609375 -5.488281 1.609375 -3.5625 C 1.609375 -1.632812 2.375 -0.671875 3.90625 -0.671875 Z M 3.90625 -0.671875 "/></g></g></g><g fill="#ffffff" fill-opacity="1"><g transform="translate(287.747819, 211.336935)"><g><path d="M 1.859375 0 L 1.078125 0 L 1.078125 -7.125 L 2.328125 -7.125 L 4.484375 -1.09375 L 4.578125 -1.09375 L 6.75 -7.125 L 7.9375 -7.125 L 7.9375 0 L 7.140625 0 L 7.140625 -5.8125 L 7.03125 -5.828125 L 4.921875 0 L 4.078125 0 L 1.96875 -5.828125 L 1.859375 -5.8125 Z M 1.859375 0 "/></g></g></g><g fill="#ffffff" fill-opacity="1"><g transform="translate(296.771782, 211.336935)"><g><path d="M 3.90625 0.109375 C 3.289062 0.109375 2.742188 -0.0234375 2.265625 -0.296875 C 1.785156 -0.566406 1.40625 -0.972656 1.125 -1.515625 C 0.851562 -2.066406 0.71875 -2.75 0.71875 -3.5625 C 0.71875 -4.375 0.851562 -5.054688 1.125 -5.609375 C 1.40625 -6.160156 1.785156 -6.566406 2.265625 -6.828125 C 2.742188 -7.097656 3.289062 -7.234375 3.90625 -7.234375 C 4.53125 -7.234375 5.082031 -7.097656 5.5625 -6.828125 C 6.039062 -6.566406 6.414062 -6.160156 6.6875 -5.609375 C 6.96875 -5.054688 7.109375 -4.375 7.109375 -3.5625 C 7.109375 -2.75 6.96875 -2.066406 6.6875 -1.515625 C 6.414062 -0.972656 6.039062 -0.566406 5.5625 -0.296875 C 5.082031 -0.0234375 4.53125 0.109375 3.90625 0.109375 Z M 3.90625 -0.671875 C 4.644531 -0.671875 5.210938 -0.898438 5.609375 -1.359375 C 6.015625 -1.828125 6.21875 -2.5625 6.21875 -3.5625 C 6.21875 -4.5625 6.015625 -5.289062 5.609375 -5.75 C 5.210938 -6.21875 4.644531 -6.453125 3.90625 -6.453125 C 2.375 -6.453125 1.609375 -5.488281 1.609375 -3.5625 C 1.609375 -1.632812 2.375 -0.671875 3.90625 -0.671875 Z M 3.90625 -0.671875 "/></g></g></g><g fill="#ffffff" fill-opacity="1"><g transform="translate(304.591575, 211.336935)"><g><path d="M 1.078125 0 L 1.078125 -7.125 L 3.671875 -7.125 C 4.140625 -7.125 4.535156 -7.046875 4.859375 -6.890625 C 5.191406 -6.734375 5.4375 -6.507812 5.59375 -6.21875 C 5.757812 -5.9375 5.84375 -5.597656 5.84375 -5.203125 C 5.84375 -4.753906 5.734375 -4.382812 5.515625 -4.09375 C 5.296875 -3.8125 4.953125 -3.601562 4.484375 -3.46875 L 4.484375 -3.359375 C 4.710938 -3.265625 4.898438 -3.117188 5.046875 -2.921875 C 5.191406 -2.734375 5.328125 -2.445312 5.453125 -2.0625 L 6.109375 0 L 5.25 0 L 4.53125 -2.171875 C 4.445312 -2.429688 4.347656 -2.632812 4.234375 -2.78125 C 4.128906 -2.925781 3.988281 -3.03125 3.8125 -3.09375 C 3.644531 -3.164062 3.429688 -3.203125 3.171875 -3.203125 L 1.921875 -3.203125 L 1.921875 0 Z M 3.640625 -3.90625 C 4.085938 -3.90625 4.421875 -4.007812 4.640625 -4.21875 C 4.859375 -4.425781 4.96875 -4.738281 4.96875 -5.15625 C 4.96875 -5.582031 4.859375 -5.898438 4.640625 -6.109375 C 4.421875 -6.316406 4.085938 -6.421875 3.640625 -6.421875 L 1.921875 -6.421875 L 1.921875 -3.90625 Z M 3.640625 -3.90625 "/></g></g></g><g fill="#ffffff" fill-opacity="1"><g transform="translate(311.192573, 211.336935)"><g><path d="M 1.078125 0 L 1.078125 -7.125 L 3.671875 -7.125 C 4.140625 -7.125 4.535156 -7.046875 4.859375 -6.890625 C 5.191406 -6.734375 5.4375 -6.507812 5.59375 -6.21875 C 5.757812 -5.9375 5.84375 -5.597656 5.84375 -5.203125 C 5.84375 -4.753906 5.734375 -4.382812 5.515625 -4.09375 C 5.296875 -3.8125 4.953125 -3.601562 4.484375 -3.46875 L 4.484375 -3.359375 C 4.710938 -3.265625 4.898438 -3.117188 5.046875 -2.921875 C 5.191406 -2.734375 5.328125 -2.445312 5.453125 -2.0625 L 6.109375 0 L 5.25 0 L 4.53125 -2.171875 C 4.445312 -2.429688 4.347656 -2.632812 4.234375 -2.78125 C 4.128906 -2.925781 3.988281 -3.03125 3.8125 -3.09375 C 3.644531 -3.164062 3.429688 -3.203125 3.171875 -3.203125 L 1.921875 -3.203125 L 1.921875 0 Z M 3.640625 -3.90625 C 4.085938 -3.90625 4.421875 -4.007812 4.640625 -4.21875 C 4.859375 -4.425781 4.96875 -4.738281 4.96875 -5.15625 C 4.96875 -5.582031 4.859375 -5.898438 4.640625 -6.109375 C 4.421875 -6.316406 4.085938 -6.421875 3.640625 -6.421875 L 1.921875 -6.421875 L 1.921875 -3.90625 Z M 3.640625 -3.90625 "/></g></g></g><g fill="#ffffff" fill-opacity="1"><g transform="translate(317.79357, 211.336935)"><g><path d="M 3.90625 0.109375 C 3.289062 0.109375 2.742188 -0.0234375 2.265625 -0.296875 C 1.785156 -0.566406 1.40625 -0.972656 1.125 -1.515625 C 0.851562 -2.066406 0.71875 -2.75 0.71875 -3.5625 C 0.71875 -4.375 0.851562 -5.054688 1.125 -5.609375 C 1.40625 -6.160156 1.785156 -6.566406 2.265625 -6.828125 C 2.742188 -7.097656 3.289062 -7.234375 3.90625 -7.234375 C 4.53125 -7.234375 5.082031 -7.097656 5.5625 -6.828125 C 6.039062 -6.566406 6.414062 -6.160156 6.6875 -5.609375 C 6.96875 -5.054688 7.109375 -4.375 7.109375 -3.5625 C 7.109375 -2.75 6.96875 -2.066406 6.6875 -1.515625 C 6.414062 -0.972656 6.039062 -0.566406 5.5625 -0.296875 C 5.082031 -0.0234375 4.53125 0.109375 3.90625 0.109375 Z M 3.90625 -0.671875 C 4.644531 -0.671875 5.210938 -0.898438 5.609375 -1.359375 C 6.015625 -1.828125 6.21875 -2.5625 6.21875 -3.5625 C 6.21875 -4.5625 6.015625 -5.289062 5.609375 -5.75 C 5.210938 -6.21875 4.644531 -6.453125 3.90625 -6.453125 C 2.375 -6.453125 1.609375 -5.488281 1.609375 -3.5625 C 1.609375 -1.632812 2.375 -0.671875 3.90625 -0.671875 Z M 3.90625 -0.671875 "/></g></g></g><g fill="#ffffff" fill-opacity="1"><g transform="translate(325.549952, 211.336935)"><g><path d="M 3.109375 0 L 2.015625 0 L 0.390625 -7.125 L 1.21875 -7.125 L 2.546875 -1.234375 L 2.671875 -1.234375 L 4.28125 -7.125 L 5.046875 -7.125 L 6.65625 -1.234375 L 6.765625 -1.234375 L 8.109375 -7.125 L 8.921875 -7.125 L 7.296875 0 L 6.1875 0 L 4.703125 -5.390625 L 4.609375 -5.390625 Z M 3.109375 0 "/></g></g></g><g fill="#ffffff" fill-opacity="1"><g transform="translate(22.564592, 209.129386)"><g><path d="M 7.09375 0 L 2.5 0 L 2.5 -35.109375 L 8.890625 -35.109375 L 19.6875 -14.734375 L 19.6875 -5.640625 L 7.09375 -29.375 Z M 29.078125 0 L 24.484375 0 L 24.484375 -35.109375 L 29.078125 -35.109375 Z M 29.078125 0 "/></g></g></g><g fill="#ffffff" fill-opacity="1"><g transform="translate(53.288051, 209.129386)"><g><path d="M 7.4375 -12.9375 L 29.71875 -12.9375 L 34.671875 0 L 29.71875 0 L 26.53125 -8.984375 L 10.6875 -8.984375 L 7.5 0 L 2.5 0 Z M 15.890625 -35.0625 L 21.28125 -35.0625 L 28.171875 -16.984375 L 23.53125 -16.984375 L 18.578125 -30.421875 L 13.640625 -16.984375 L 8.984375 -16.984375 Z M 15.890625 -35.0625 "/></g></g></g><g fill="#ffffff" fill-opacity="1"><g transform="translate(80.114786, 209.129386)"><g><path d="M 42.109375 -35.0625 L 46.90625 -35.0625 L 38.109375 0 L 31.421875 0 L 26.578125 -19.984375 L 31.125 -19.984375 L 34.765625 -5.390625 Z M 2.5 -35.0625 L 7.296875 -35.0625 L 14.6875 -5.390625 L 18.28125 -19.984375 L 22.78125 -19.984375 L 17.890625 0 L 11.296875 0 Z M 22.03125 -33.96875 L 27.375 -33.96875 L 29.921875 -24.78125 L 25.421875 -24.78125 L 24.625 -27.625 L 23.921875 -24.78125 L 19.484375 -24.78125 Z M 22.03125 -33.96875 "/></g></g></g><g fill="#ffffff" fill-opacity="1"><g transform="translate(121.528983, 209.129386)"><g><path d="M 7.4375 -12.9375 L 29.71875 -12.9375 L 34.671875 0 L 29.71875 0 L 26.53125 -8.984375 L 10.6875 -8.984375 L 7.5 0 L 2.5 0 Z M 15.890625 -35.0625 L 21.28125 -35.0625 L 28.171875 -16.984375 L 23.53125 -16.984375 L 18.578125 -30.421875 L 13.640625 -16.984375 L 8.984375 -16.984375 Z M 15.890625 -35.0625 "/></g></g></g><g fill="#ffffff" fill-opacity="1"><g transform="translate(157.897595, 209.129386)"><g><path d="M 7.4375 -12.9375 L 29.71875 -12.9375 L 34.671875 0 L 29.71875 0 L 26.53125 -8.984375 L 10.6875 -8.984375 L 7.5 0 L 2.5 0 Z M 15.890625 -35.0625 L 21.28125 -35.0625 L 28.171875 -16.984375 L 23.53125 -16.984375 L 18.578125 -30.421875 L 13.640625 -16.984375 L 8.984375 -16.984375 Z M 15.890625 -35.0625 "/></g></g></g><g fill="#ffffff" fill-opacity="1"><g transform="translate(194.266207, 209.129386)"><g/></g></g><g fill="#ffffff" fill-opacity="1"><g transform="translate(203.458192, 209.129386)"><g><path d="M 7.4375 -12.9375 L 29.71875 -12.9375 L 34.671875 0 L 29.71875 0 L 26.53125 -8.984375 L 10.6875 -8.984375 L 7.5 0 L 2.5 0 Z M 15.890625 -35.0625 L 21.28125 -35.0625 L 28.171875 -16.984375 L 23.53125 -16.984375 L 18.578125 -30.421875 L 13.640625 -16.984375 L 8.984375 -16.984375 Z M 15.890625 -35.0625 "/></g></g></g><g fill="#ffffff" fill-opacity="1"><g transform="translate(239.826816, 209.129386)"><g><path d="M 2.5 -16.140625 L 7.296875 -16.140625 L 7.296875 0 L 2.5 0 Z M 2.5 -35.015625 L 7.296875 -35.015625 L 7.296875 -20.875 L 2.5 -20.875 Z M 2.5 -35.015625 "/></g></g></g></svg>